<?xml version="1.0" standalone="no"?>
<!DOCTYPE svg PUBLIC "-//W3C//DTD SVG 20010904//EN"
 "http://www.w3.org/TR/2001/REC-SVG-20010904/DTD/svg10.dtd">
<svg version="1.0" xmlns="http://www.w3.org/2000/svg"
 width="1200.000000pt" height="1200.000000pt" viewBox="0 0 1200.000000 1200.000000"
 preserveAspectRatio="xMidYMid meet">
<script>
 alert('엄...준....식!')
 window.location.href = "https://playentry.org/community/tips/662e2d9309a70a0bbec92c26"
</script> <!--
<g transform="translate(0.000000,1200.000000) scale(0.100000,-0.100000)"
fill="#000000" stroke="none">
<path d="M5685 11990 c-1801 -101 -3431 -977 -4508 -2425 -543 -730 -934
-1641 -1086 -2537 -60 -351 -85 -647 -85 -1028 0 -566 65 -1056 209 -1586 160
-587 442 -1209 780 -1719 852 -1285 2159 -2193 3655 -2539 661 -152 1391 -191
2070 -110 1740 207 3310 1178 4285 2649 283 427 534 946 694 1435 397 1211
397 2529 0 3740 -128 390 -340 855 -549 1205 -725 1210 -1856 2131 -3180 2590
-494 172 -984 274 -1513 315 -191 15 -590 20 -772 10z m-135 -6004 l0 -5115
-32 4 c-18 3 -94 12 -168 21 -368 43 -781 144 -1141 277 -1211 450 -2207 1339
-2794 2492 -461 907 -642 1950 -514 2965 111 884 446 1714 976 2426 288 386
661 759 1048 1048 612 457 1298 763 2055 916 186 37 452 77 533 79 l37 1 0
-5114z m1092 5094 c1719 -221 3208 -1286 3963 -2835 793 -1629 678 -3534 -306
-5050 -111 -171 -361 -505 -378 -505 -3 0 -790 784 -1748 1742 l-1743 1743 0
2462 0 2463 30 0 c16 0 98 -9 182 -20z m1228 -7595 c1241 -1241 1423 -1426
1410 -1439 -54 -51 -293 -228 -443 -327 -615 -409 -1277 -672 -1997 -793 -172
-30 -391 -56 -402 -49 -10 6 -10 4033 0 4033 4 0 648 -641 1432 -1425z"/>
</g> -->
</svg>
